<svg width="27" height="26" viewBox="0 0 27 26" fill="none" xmlns="http://www.w3.org/2000/svg">
<path d="M5.57548 4.06383L6.09921 2.10924C6.32097 1.28162 7.1694 0.791777 7.99144 1.01676L25.1041 5.59736C25.9317 5.81912 26.4215 6.66756 26.1966 7.48959L21.6104 24.6055C21.3886 25.4331 20.5402 25.9229 19.7182 25.6979L17.7636 25.1742C16.9271 24.9501 16.4388 24.0785 16.6805 23.2468L19.707 12.9556L3.66488 22.2175C2.9225 22.6461 1.98042 22.3937 1.55181 21.6513L0.520557 19.8651C0.0919435 19.1227 0.344372 18.1806 1.08675 17.752L17.1289 8.49011L6.70317 5.9655C5.85645 5.76221 5.34577 4.90348 5.57548 4.06383Z" fill="black"/>
</svg>
