<svg width="54" height="54" viewBox="0 0 54 54" fill="none" xmlns="http://www.w3.org/2000/svg">
<rect width="54" height="54" transform="matrix(-1 0 0 1 54 0)" fill="black"/>
<path d="M26.6602 22.5042L25.9913 21.8179C25.708 21.5274 25.25 21.5274 24.9698 21.8179L19.1124 27.8245C18.8292 28.1151 18.8292 28.5849 19.1124 28.8724L24.9698 34.8821C25.2531 35.1726 25.711 35.1726 25.9913 34.8821L26.6602 34.1958C26.9464 33.9021 26.9404 33.4229 26.6481 33.1354L23.0174 29.5865H31.6769C32.0776 29.5865 32.4 29.2558 32.4 28.8446V27.8554C32.4 27.4442 32.0776 27.1135 31.6769 27.1135H23.0174L26.6481 23.5646C26.9434 23.2771 26.9494 22.7979 26.6602 22.5042Z" fill="white"/>
</svg>
