<svg width="54" height="54" viewBox="0 0 54 54" fill="none" xmlns="http://www.w3.org/2000/svg">
<rect width="54" height="54" fill="black"/>
<path d="M27.3398 22.5042L28.0087 21.8179C28.292 21.5274 28.75 21.5274 29.0302 21.8179L34.8876 27.8245C35.1708 28.1151 35.1708 28.5849 34.8876 28.8724L29.0302 34.8821C28.7469 35.1726 28.289 35.1726 28.0087 34.8821L27.3398 34.1958C27.0536 33.9021 27.0596 33.4229 27.3519 33.1354L30.9826 29.5865H22.3231C21.9224 29.5865 21.6 29.2558 21.6 28.8446V27.8554C21.6 27.4442 21.9224 27.1135 22.3231 27.1135H30.9826L27.3519 23.5646C27.0566 23.2771 27.0506 22.7979 27.3398 22.5042Z" fill="white"/>
</svg>
