<svg width="63" height="63" viewBox="0 0 63 63" fill="none" xmlns="http://www.w3.org/2000/svg">
<circle cx="31.5" cy="31.5" r="31.5" fill="black"/>
<path d="M48.2054 22.5749H47.6353V19.228C47.6353 16.1043 40.5654 13.6499 31.6711 13.6499C22.7767 13.6499 15.7069 16.1043 15.7069 19.228V22.5749H15.1367C14.1924 22.5749 13.4263 23.3238 13.4263 24.2483V29.8265C13.4263 30.7503 14.1924 31.4999 15.1367 31.4999H15.7069V42.6562C15.7069 43.8882 16.7282 44.8874 17.9875 44.8874V47.1187C17.9875 48.3507 19.0088 49.3499 20.2681 49.3499H22.5487C23.808 49.3499 24.8293 48.3507 24.8293 47.1187V44.8874H38.5129V47.1187C38.5129 48.3507 39.5342 49.3499 40.7935 49.3499H43.0741C44.3334 49.3499 45.3547 48.3507 45.3547 47.1187V44.8874H45.8108C46.9511 44.8874 47.6353 43.9949 47.6353 43.1024V31.4999H48.2054C49.1498 31.4999 49.9159 30.7503 49.9159 29.8265V24.2483C49.9159 23.3238 49.1498 22.5749 48.2054 22.5749ZM21.4084 41.5405C20.1491 41.5405 19.1278 40.5413 19.1278 39.3093C19.1278 38.0772 20.1491 37.078 21.4084 37.078C22.6677 37.078 23.689 38.0772 23.689 39.3093C23.689 40.5413 22.6677 41.5405 21.4084 41.5405ZM22.5487 33.7312C21.2894 33.7312 20.2681 32.732 20.2681 31.4999V22.5749C20.2681 21.3428 21.2894 20.3437 22.5487 20.3437H40.7935C42.0528 20.3437 43.0741 21.3428 43.0741 22.5749V31.4999C43.0741 32.732 42.0528 33.7312 40.7935 33.7312H22.5487ZM41.9338 41.5405C40.6745 41.5405 39.6532 40.5413 39.6532 39.3093C39.6532 38.0772 40.6745 37.078 41.9338 37.078C43.1931 37.078 44.2144 38.0772 44.2144 39.3093C44.2144 40.5413 43.1931 41.5405 41.9338 41.5405Z" fill="white"/>
</svg>
