<svg width="63" height="63" viewBox="0 0 63 63" fill="none" xmlns="http://www.w3.org/2000/svg">
<circle cx="31.5" cy="31.5" r="31.5" fill="black"/>
<path d="M46.7732 27.1065L45.9188 24.9551L44.4037 21.14C43.103 17.8654 40.0006 15.75 36.4984 15.75H26.8438C23.3423 15.75 20.2392 17.8654 18.9385 21.14L17.4234 24.9551L16.5689 27.1065C14.7353 27.8086 13.4263 29.5818 13.4263 31.675V35.35C13.4263 36.5842 13.8946 37.6982 14.6426 38.5603V42.7C14.6426 44.0529 15.732 45.15 17.0752 45.15H19.5079C20.8511 45.15 21.9405 44.0529 21.9405 42.7V40.25H41.4017V42.7C41.4017 44.0529 42.491 45.15 43.8343 45.15H46.2669C47.6102 45.15 48.6996 44.0529 48.6996 42.7V38.5603C49.4476 37.6989 49.9159 36.585 49.9159 35.35V31.675C49.9159 29.5818 48.6068 27.8086 46.7732 27.1065ZM23.4556 22.9599C24.0098 21.5649 25.3515 20.65 26.8438 20.65H36.4984C37.9906 20.65 39.3324 21.5649 39.8866 22.9599L41.4017 26.775H21.9405L23.4556 22.9599ZM19.5079 35.3347C18.0483 35.3347 17.0752 34.3577 17.0752 32.8923C17.0752 31.4269 18.0483 30.45 19.5079 30.45C20.9675 30.45 23.1568 32.6481 23.1568 34.1135C23.1568 35.5789 20.9675 35.3347 19.5079 35.3347ZM43.8343 35.3347C42.3747 35.3347 40.1853 35.5789 40.1853 34.1135C40.1853 32.6481 42.3747 30.45 43.8343 30.45C45.2939 30.45 46.2669 31.4269 46.2669 32.8923C46.2669 34.3577 45.2939 35.3347 43.8343 35.3347Z" fill="white"/>
</svg>
