<svg width="43" height="43" viewBox="0 0 43 43" fill="none" xmlns="http://www.w3.org/2000/svg">
<path d="M36.7272 40.7505H6.28121C5.21338 40.7505 4.18916 40.3269 3.43331 39.5726C2.67746 38.8183 2.25172 37.795 2.24951 36.7272V6.27288C2.25172 5.20505 2.67746 4.18171 3.43331 3.42742C4.18916 2.67313 5.21338 2.24951 6.28121 2.24951H36.7272C37.7942 2.24951 38.8176 2.6734 39.5721 3.42793C40.3266 4.18246 40.7505 5.20581 40.7505 6.27288V36.7272C40.7505 37.7942 40.3266 38.8176 39.5721 39.5721C38.8176 40.3266 37.7942 40.7505 36.7272 40.7505ZM6.28121 3.18247C5.46081 3.18246 4.67389 3.50779 4.09301 4.08712C3.51212 4.66644 3.18467 5.45248 3.18247 6.27288V36.7272C3.18467 37.5476 3.51212 38.3336 4.09301 38.9129C4.67389 39.4922 5.46081 39.8176 6.28121 39.8176H36.7272C37.5461 39.8154 38.3309 39.4891 38.91 38.91C39.4891 38.3309 39.8154 37.5461 39.8176 36.7272V6.27288C39.8154 5.45392 39.4891 4.66914 38.91 4.09005C38.3309 3.51097 37.5461 3.18466 36.7272 3.18247H6.28121Z" fill="white" stroke="white" stroke-width="3" stroke-miterlimit="10"/>
<path d="M30.8295 12.9199V30.0796H24.5654L18.4345 21.4415V30.0796H12.1704V12.9199H18.4345L24.5654 21.9079V12.9199H30.8295Z" fill="white" stroke="white" stroke-miterlimit="10"/>
</svg>
