<svg width="34" height="34" viewBox="0 0 34 34" fill="none" xmlns="http://www.w3.org/2000/svg">
<path d="M7.74609 17.9365H24.0536L19.0623 23.9315C18.9468 24.0706 18.8597 24.231 18.8062 24.4037C18.7526 24.5764 18.7336 24.7579 18.7502 24.9379C18.7837 25.3015 18.9603 25.6369 19.2411 25.8703C19.5219 26.1037 19.8839 26.216 20.2475 26.1824C20.6111 26.1489 20.9465 25.9723 21.1798 25.6915L28.0548 17.4415C28.1011 17.3759 28.1425 17.307 28.1786 17.2353C28.1786 17.1665 28.2473 17.1253 28.2748 17.0565C28.3372 16.8989 28.3698 16.731 28.3711 16.5615C28.3698 16.392 28.3372 16.2242 28.2748 16.0665C28.2748 15.9978 28.2061 15.9565 28.1786 15.8878C28.1425 15.8161 28.1011 15.7471 28.0548 15.6815L21.1798 7.43153C21.0506 7.27631 20.8887 7.15149 20.7057 7.06594C20.5227 6.98038 20.3231 6.9362 20.1211 6.93653C19.7998 6.9359 19.4885 7.04779 19.2411 7.25278C19.1019 7.36821 18.9868 7.50997 18.9024 7.66995C18.8181 7.82992 18.7661 8.00497 18.7495 8.18507C18.7329 8.36516 18.752 8.54676 18.8057 8.71946C18.8593 8.89217 18.9466 9.05258 19.0623 9.19153L24.0536 15.1865H7.74609C7.38142 15.1865 7.03168 15.3314 6.77382 15.5893C6.51596 15.8471 6.37109 16.1969 6.37109 16.5615C6.37109 16.9262 6.51596 17.2759 6.77382 17.5338C7.03168 17.7917 7.38142 17.9365 7.74609 17.9365Z" fill="white"/>
</svg>
