<svg width="20" height="20" viewBox="0 0 20 20" fill="none" xmlns="http://www.w3.org/2000/svg">
<path d="M13.5344 9.16719H12.876L12.6427 8.94219C13.6427 7.77552 14.1594 6.18385 13.876 4.49219C13.4844 2.17552 11.551 0.325521 9.21771 0.042188C5.69271 -0.391145 2.72604 2.57552 3.15938 6.10052C3.44271 8.43385 5.29271 10.3672 7.60938 10.7589C9.30104 11.0422 10.8927 10.5255 12.0594 9.52552L12.2844 9.75885V10.4172L15.826 13.9589C16.1677 14.3005 16.726 14.3005 17.0677 13.9589C17.4094 13.6172 17.4094 13.0589 17.0677 12.7172L13.5344 9.16719ZM8.53438 9.16719C6.45938 9.16719 4.78438 7.49219 4.78438 5.41719C4.78438 3.34219 6.45938 1.66719 8.53438 1.66719C10.6094 1.66719 12.2844 3.34219 12.2844 5.41719C12.2844 7.49219 10.6094 9.16719 8.53438 9.16719Z" fill="black"/>
</svg>
