<svg width="63" height="63" viewBox="0 0 63 63" fill="none" xmlns="http://www.w3.org/2000/svg">
<circle cx="31.5" cy="31.5" r="31.5" fill="black"/>
<path d="M45.7918 29.9743L44.2303 23.9143C43.5489 21.4 41.2776 19.5714 38.7792 19.5714H37.9842V17.2857C37.9842 16.0236 36.9671 15 35.7129 15H26.6278C25.3736 15 24.3565 16.0236 24.3565 17.2857V19.5714H23.5615C21.0631 19.5714 18.7918 21.4 18.1104 23.9143L16.5489 29.9743C14.5196 30.4314 13 32.2479 13 34.4286V37.8571C13 39.545 13.9192 41.0029 15.2713 41.7943V44.7143C15.2713 45.9764 16.2884 47 17.5426 47H19.8139C21.0681 47 22.0852 45.9764 22.0852 44.7143V42.4286H40.2555V44.7143C40.2555 45.9764 41.2726 47 42.5268 47H44.7981C46.0523 47 47.0694 45.9764 47.0694 44.7143V41.7943C48.4215 41.0021 49.3407 39.5443 49.3407 37.8571V34.4286C49.3407 32.2479 47.8211 30.4314 45.7918 29.9743ZM19.8139 37.8571C18.5597 37.8571 17.5426 36.8336 17.5426 35.5714C17.5426 34.3093 18.5597 33.2857 19.8139 33.2857C21.0681 33.2857 22.0852 34.3093 22.0852 35.5714C22.0852 36.8336 21.0681 37.8571 19.8139 37.8571ZM21.2725 29.8571L22.4933 25.1171C22.6516 24.5343 23.174 24.1429 23.5622 24.1429H38.7799C39.1681 24.1429 39.6905 24.5343 39.8339 25.0614L41.0682 29.8571H21.2725ZM42.5268 37.8571C41.2726 37.8571 40.2555 36.8336 40.2555 35.5714C40.2555 34.3093 41.2726 33.2857 42.5268 33.2857C43.781 33.2857 44.7981 34.3093 44.7981 35.5714C44.7981 36.8336 43.781 37.8571 42.5268 37.8571Z" fill="white"/>
</svg>
