<svg width="39" height="40" viewBox="0 0 39 40" fill="none" xmlns="http://www.w3.org/2000/svg">
<path d="M29.1433 0.819824H9.8815C7.27177 0.819824 4.76893 1.85654 2.92357 3.70189C1.07822 5.54725 0.0415039 8.05009 0.0415039 10.6598V29.9544C0.0415039 32.5642 1.07822 35.067 2.92357 36.9124C4.76893 38.7577 7.27177 39.7944 9.8815 39.7944H16.5071V25.8544H11.5871V20.3276H16.5071V16.08C16.5071 11.2502 19.3771 8.58522 23.7805 8.58522C25.2255 8.60542 26.6671 8.73149 28.0937 8.96242V13.702H25.6337C23.2393 13.702 22.4931 15.1862 22.4931 16.7114V20.3276H27.8395L26.9785 25.8954H22.5259V39.8354H29.1351C31.7448 39.8354 34.2477 38.7987 36.093 36.9534C37.9384 35.108 38.9751 32.6052 38.9751 29.9954V10.6598C38.9751 8.05151 37.9395 5.54991 36.0959 3.70479C34.2523 1.85967 31.7516 0.821998 29.1433 0.819824Z" fill="white"/>
</svg>
